PathFileType	4	(X/Y/Z)	/Users/itak/Documents/Research/Walk-IL/dataset/trc/00029_00004.trc
DataRate	CameraRate	NumFrames	NumMarkers	Units	OrigDataRate	OrigDataStartFrame	OrigNumFrames
100.000000	100.000000	4	53	mm	100.000000	479	767
Frame#	Time	RPSI			LPSI			L3			STRN			T10			C7			CLAV			RBAK			LBAK			LSHO			LUPA			LAEL			LAOL			LWTS			LWPS			LFRA			LIFD			LHPS			LHTS			RSHO			RUPA			RAEL			RAOL			RWTS			RWPS			RFRA			RIFD			RHTS			RHPS			RBHD			LFHD			RFHD			LBHD			LHIP			RHIP			RASI			LASI			LKNE			LTHI			LANK			LTIP			LTOE			LMT1			LMT5			LHEE			RKNE			RTHI			RANK			RTIP			RTOE			RMT1			RMT5			RHEE			
		X1	Y1	Z1	X2	Y2	Z2	X3	Y3	Z3	X4	Y4	Z4	X5	Y5	Z5	X6	Y6	Z6	X7	Y7	Z7	X8	Y8	Z8	X9	Y9	Z9	X10	Y10	Z10	X11	Y11	Z11	X12	Y12	Z12	X13	Y13	Z13	X14	Y14	Z14	X15	Y15	Z15	X16	Y16	Z16	X17	Y17	Z17	X18	Y18	Z18	X19	Y19	Z19	X20	Y20	Z20	X21	Y21	Z21	X22	Y22	Z22	X23	Y23	Z23	X24	Y24	Z24	X25	Y25	Z25	X26	Y26	Z26	X27	Y27	Z27	X28	Y28	Z28	X29	Y29	Z29	X30	Y30	Z30	X31	Y31	Z31	X32	Y32	Z32	X33	Y33	Z33	X34	Y34	Z34	X35	Y35	Z35	X36	Y36	Z36	X37	Y37	Z37	X38	Y38	Z38	X39	Y39	Z39	X40	Y40	Z40	X41	Y41	Z41	X42	Y42	Z42	X43	Y43	Z43	X44	Y44	Z44	X45	Y45	Z45	X46	Y46	Z46	X47	Y47	Z47	X48	Y48	Z48	X49	Y49	Z49	X50	Y50	Z50	X51	Y51	Z51	X52	Y52	Z52	X53	Y53	Z53	

480	4.79	562.8471069335938	1035.509155273438	-386.7843627929688	677.2469482421875	1040.447998046875	-502.7805480957031	611.4215698242188	1101.98193359375	-451.9945983886719	761.8784790039062	1287.022216796875	-279.9982299804688	591.710693359375	1246.686401367188	-463.0976257324219	629.4911499023438	1513.392822265625	-418.9303588867188	734.02490234375	1413.717407226562	-307.2559814453125	535.6463623046875	1374.441528320312	-413.2424926757812	686.4127807617188	1478.895874023438	-501.4449157714844	810.0631713867188	1484.849365234375	-479.9866638183594	840.0344848632812	1370.04638671875	-571.8452758789062	850.6002197265625	1158.75830078125	-622.3483276367188	744.6085815429688	1146.254516601562	-599.0326538085938	861.9131469726562	893.0809936523438	-553.3350219726562	843.7777709960938	891.09228515625	-640.6654052734375	861.0292358398438	1043.12109375	-633.54150390625	872.6243896484375	701.61474609375	-562.1204833984375	862.4452514648438	798.9008178710938	-628.2830200195312	881.3359375	798.3377685546875	-559.7114868164062	554.3712158203125	1483.213500976562	-246.3606262207031	491.0525817871094	1413.940063476562	-214.57568359375	430.5784606933594	1151.279174804688	-242.8541870117188	498.434326171875	1125.876708984375	-311.8308410644531	556.2199096679688	895.8324584960938	-181.2212829589844	466.6577758789062	873.5438842773438	-179.3311157226562	429.6576232910156	1072.39794921875	-225.4967803955078	600.3028564453125	715.620361328125	-190.4192962646484	582.1599731445312	788.5030517578125	-154.2187347412109	508.58740234375	773.7650756835938	-157.8975067138672	749.6653442382812	1700.004028320312	-364.2478332519531	673.6192626953125	1660.6083984375	-162.6324157714844	768.6000366210938	1673.166870117188	-185.6616058349609	611.095458984375	1678.594970703125	-325.3664245605469	833.1099853515625	949.5624389648438	-507.1433715820312	569.3392944335938	908.7922973632812	-244.8100738525391	690.4212646484375	952.089599609375	-215.5689544677734	856.3656005859375	993.53564453125	-378.5325622558594	955.6268310546875	539.5874633789062	-334.0702514648438	934.8269653320312	664.1279907226562	-416.3562622070312	995.2376098632812	63.1121711730957	-483.6249694824219	977.6799926757812	310.7301940917969	-436.9308166503906	1052.608154296875	55.6757926940918	-267.0633850097656	1007.504455566406	55.45814514160156	-308.011474609375	1075.986328125	66.84415435791016	-389.2438354492188	915.6463012695312	59.10498428344727	-515.9135131835938	655.2494506835938	484.3936767578125	-348.5999145507812	607.2467041015625	740.8135986328125	-259.2310485839844	594.62158203125	37.73963928222656	-554.3151245117188	647.2870483398438	364.605712890625	-396.3377380371094	808.85302734375	32.31296539306641	-457.7577209472656	773.1878662109375	40.0322265625	-514.9935913085938	702.1693725585938	34.39877319335938	-450.6883544921875	574.97900390625	46.1527214050293	-621.3511962890625	
481	4.8	568.9525756835938	1034.8427734375	-383.7243957519531	685.5272216796875	1039.4697265625	-497.763916015625	619.1248168945312	1101.088134765625	-448.0977478027344	766.7072143554688	1285.848388671875	-273.4471435546875	599.4602661132812	1245.943725585938	-459.3889465332031	636.905517578125	1512.523803710938	-414.2882385253906	739.4207153320312	1412.57080078125	-301.049560546875	542.8477783203125	1373.688232421875	-410.2842102050781	695.11181640625	1478.1015625	-496.0129699707031	818.4007568359375	1483.761962890625	-472.3876953125	849.7954711914062	1369.039672851562	-563.760498046875	861.2200317382812	1157.754516601562	-614.2249755859375	754.7071533203125	1145.31884765625	-592.9713134765625	871.2965087890625	892.1548461914062	-544.7216796875	854.8671264648438	890.094970703125	-632.4525146484375	871.8670043945312	1042.104614257812	-625.158935546875	881.8003540039062	700.6873168945312	-553.375732421875	873.2543334960938	797.8775634765625	-619.563720703125	890.8411254882812	797.4512939453125	-550.68408203125	559.010009765625	1482.228881835938	-242.9562072753906	494.7457275390625	1413.163208007812	-212.4198608398438	433.8651123046875	1150.707885742188	-241.8987426757812	503.3470458984375	1125.093994140625	-309.5472106933594	558.1307983398438	894.9915771484375	-177.8653717041016	468.6471252441406	872.8507690429688	-177.4984741210938	432.7155456542969	1071.795532226562	-224.4584808349609	601.8931274414062	714.6337280273438	-186.2381744384766	583.4188232421875	787.6210327148438	-150.2978668212891	509.9262390136719	773.0454711914062	-155.2181549072266	756.2465209960938	1698.906860351562	-357.6085815429688	677.0233764648438	1659.491821289062	-157.2533416748047	772.2935791015625	1671.943603515625	-178.7015838623047	617.066162109375	1677.667724609375	-320.9691467285156	841.5021362304688	948.4454345703125	-499.8096923828125	572.9712524414062	908.1856689453125	-241.5288238525391	693.8275756835938	950.9763793945312	-210.5084075927734	862.56396484375	992.28564453125	-370.7165832519531	962.249755859375	540.645263671875	-321.9349670410156	942.1373291015625	663.868408203125	-405.572509765625	1011.717102050781	60.90276336669922	-454.9063415527344	989.6343383789062	309.5883483886719	-416.9190673828125	1063.800048828125	58.11111450195312	-236.9435577392578	1019.737365722656	56.79604339599609	-278.9407348632812	1090.139038085938	67.09807586669922	-358.7106628417969	932.8345947265625	55.58095169067383	-489	656.6841430664062	483.8981323242188	-346.5404052734375	609.8497924804688	740.2117919921875	-256.4339294433594	594.9337158203125	38.24966430664062	-554.6870727539062	648.2164916992188	364.3093566894531	-394.8610534667969	808.8862915039062	32.35214614868164	-457.6066284179688	773.2113037109375	40.08109283447266	-514.9349365234375	702.1795654296875	34.44710540771484	-450.6615295410156	575.50439453125	47.07009887695312	-621.7727661132812	
482	4.81	574.7254028320312	1034.128662109375	-380.5946655273438	693.5811157226562	1038.383056640625	-492.6380615234375	627.099365234375	1100.119140625	-444.0243225097656	771.54296875	1284.61572265625	-266.8506164550781	607.2117919921875	1245.1259765625	-455.5394592285156	644.2693481445312	1511.580322265625	-409.4995422363281	744.79296875	1411.358276367188	-294.7818908691406	550.0244750976562	1372.885498046875	-407.1562805175781	703.71533203125	1477.223999023438	-490.4621887207031	826.6217651367188	1482.610595703125	-464.7081298828125	859.41357421875	1367.978759765625	-555.5831298828125	871.6936645507812	1156.713500976562	-606.031005859375	764.9580688476562	1144.3115234375	-586.78369140625	880.6419067382812	891.2122192382812	-535.9840087890625	865.8734741210938	889.0578002929688	-624.0785522460938	882.5830688476562	1041.044677734375	-616.6852416992188	890.9601440429688	699.7579345703125	-544.482666015625	884.0038452148438	796.7939453125	-610.6644287109375	900.3298950195312	796.5625	-541.5084228515625	563.68896484375	1481.161865234375	-239.4363403320312	498.569580078125	1412.296020507812	-210.1295166015625	437.2137145996094	1150.058471679688	-240.8106994628906	508.2138366699219	1124.23779296875	-307.1507873535156	560.0859985351562	894.0538330078125	-174.4736328125	470.6397399902344	872.086669921875	-175.6092071533203	435.8541564941406	1071.115234375	-223.2933349609375	603.546630859375	713.5797119140625	-182.0092926025391	584.6701049804688	786.6403198242188	-146.3866119384766	511.289794921875	772.2279663085938	-152.5192565917969	762.7915649414062	1697.73291015625	-350.8694763183594	680.4496459960938	1658.291870117188	-151.7968597412109	775.9742431640625	1670.634399414062	-171.6780090332031	623.021728515625	1676.672607421875	-316.4415588378906	849.8218383789062	947.2412719726562	-492.3935546875	576.6691284179688	907.573486328125	-238.1239624023438	697.2477416992188	949.8402099609375	-205.4122924804688	868.7744750976562	990.9978637695312	-362.8815612792969	968.7986450195312	541.6141967773438	-310.0968017578125	949.2949829101562	663.5172729492188	-395.0213317871094	1026.7197265625	59.06221771240234	-426.0303344726562	1000.770751953125	308.5462036132812	-397.0103149414062	1074.258666992188	61.23259735107422	-207.1623840332031	1031.112670898438	58.76666641235352	-249.9577178955078	1103.114379882812	67.77729797363281	-328.4619445800781	948.4614868164062	52.35752105712891	-461.5686645507812	658.1935424804688	483.4247436523438	-344.36328125	612.54736328125	739.6188354492188	-253.4850921630859	595.0958251953125	38.86384963989258	-555.0155639648438	649.1939086914062	364.0358276367188	-393.2720947265625	808.9194946289062	32.38214492797852	-457.4698791503906	773.2540893554688	40.14284133911133	-514.8531494140625	702.2028198242188	34.47657775878906	-450.6163330078125	575.9947509765625	48.07994079589844	-622.1337280273438	
483	4.82	580.2904663085938	1033.3662109375	-377.3793640136719	701.4545288085938	1037.1943359375	-487.3987426757812	635.2688598632812	1099.087768554688	-439.7801208496094	776.3836669921875	1283.330688476562	-260.2057189941406	614.9750366210938	1244.22802734375	-451.5572814941406	651.5811767578125	1510.567993164062	-404.5664672851562	750.14306640625	1410.087768554688	-288.4472351074219	557.1580810546875	1372.040893554688	-403.8687438964844	712.2398681640625	1476.266479492188	-484.7726135253906	834.7237548828125	1481.404663085938	-456.9550170898438	868.88427734375	1366.86865234375	-547.3248291015625	882.01025390625	1155.637329101562	-597.7725219726562	775.3238525390625	1143.240234375	-580.4488525390625	889.9468994140625	890.2626342773438	-527.1375122070312	876.7777099609375	887.9878540039062	-615.5502319335938	893.1663208007812	1039.954223632812	-608.1280517578125	900.106689453125	698.8342895507812	-535.4544067382812	894.6866455078125	795.672119140625	-601.602294921875	909.8056030273438	795.6798095703125	-532.197998046875	568.394287109375	1480.019165039062	-235.8045806884766	502.5425720214844	1411.333129882812	-207.6943054199219	440.6696166992188	1149.326782226562	-239.5643768310547	513.0153198242188	1123.313598632812	-304.6423950195312	562.0996704101562	893.0169677734375	-171.0420379638672	472.6360473632812	871.244384765625	-173.6600036621094	439.0838928222656	1070.354125976562	-221.9906463623047	605.2923583984375	712.4608764648438	-177.7235412597656	585.9365234375	785.5576782226562	-142.4834442138672	512.6842041015625	771.31103515625	-149.7949523925781	769.2999877929688	1696.494262695312	-344.0315551757812	683.906005859375	1657.014526367188	-146.2604064941406	779.6536865234375	1669.24755859375	-164.5945892333984	628.9663696289062	1675.609375	-311.7759704589844	858.087646484375	945.9566650390625	-484.8471984863281	580.4185180664062	906.9735717773438	-234.5956878662109	700.6812133789062	948.6911010742188	-200.244140625	875.0021362304688	989.6952514648438	-354.9990234375	975.2623901367188	542.4672241210938	-298.5439758300781	956.3328857421875	663.0662841796875	-384.7080078125	1040.388916015625	57.56612777709961	-397.1174011230469	1011.148864746094	307.5806274414062	-377.2568054199219	1083.8994140625	65.20166015625	-177.7156524658203	1041.571655273438	61.49298095703125	-221.1349487304688	1114.954833984375	68.95442962646484	-298.5016784667969	962.72119140625	49.40155792236328	-433.8143005371094	659.7655029296875	482.9725036621094	-342.0451965332031	615.3298950195312	739.0413818359375	-250.376220703125	595.1420288085938	39.58732986450195	-555.2896728515625	650.2205200195312	363.7850341796875	-391.5569152832031	808.94970703125	32.40008926391602	-457.3498840332031	773.3155517578125	40.22751998901367	-514.7434692382812	702.23681640625	34.48765563964844	-450.5484924316406	576.4540405273438	49.19187164306641	-622.4248046875	
